<svg width="160" height="42" viewBox="0 0 160 42" fill="none" xmlns="http://www.w3.org/2000/svg">
<path d="M51.8414 34.4734C49.7795 33.9331 48.1042 33.2126 46.8154 32.3121L49.3284 26.6772C50.5398 27.4748 51.9445 28.118 53.5426 28.6069C55.1406 29.0958 56.7128 29.3402 58.2593 29.3402C61.1976 29.3402 62.6667 28.6069 62.6667 27.1403C62.6667 26.3684 62.2479 25.7959 61.4102 25.4228C60.5725 25.0497 59.2258 24.6573 57.3701 24.2457C55.3339 23.8082 53.6328 23.3387 52.2667 22.8369C50.9007 22.3352 49.7279 21.5311 48.7485 20.4247C47.7691 19.3183 47.2794 17.826 47.2794 15.9477C47.2794 14.3009 47.7304 12.815 48.6325 11.4899C49.5346 10.1648 50.8813 9.11629 52.6727 8.34438C54.464 7.57248 56.6613 7.18652 59.2645 7.18652C61.0429 7.18652 62.7956 7.38593 64.5225 7.78475C66.2494 8.18357 67.7701 8.76893 69.0845 9.54084L66.7262 15.2143C64.1487 13.8249 61.6486 13.1302 59.2258 13.1302C57.7051 13.1302 56.5968 13.3553 55.9009 13.8056C55.205 14.2559 54.8571 14.8413 54.8571 15.5617C54.8571 16.2822 55.2694 16.8225 56.0942 17.1827C56.919 17.5429 58.2464 17.916 60.0764 18.302C62.1383 18.7394 63.8459 19.209 65.1991 19.7107C66.5522 20.2124 67.7249 21.0101 68.7173 22.1036C69.7096 23.1971 70.2057 24.6831 70.2057 26.5614C70.2057 28.1824 69.7547 29.649 68.8526 30.9612C67.9505 32.2735 66.5973 33.322 64.7931 34.1068C62.9889 34.8915 60.7981 35.2839 58.2206 35.2839C56.0298 35.2839 53.9034 35.0137 51.8414 34.4734ZM95.8374 28.8385V34.7436H74.1095V7.72686H95.3348V13.6319H81.6872V18.1862H93.711V23.8983H81.6872V28.8385H95.8374ZM103.608 34.4734C101.546 33.9331 99.8709 33.2126 98.5822 32.3121L101.095 26.6772C102.307 27.4748 103.711 28.118 105.309 28.6069C106.907 29.0958 108.48 29.3402 110.026 29.3402C112.964 29.3402 114.434 28.6069 114.434 27.1403C114.434 26.3684 114.015 25.7959 113.177 25.4228C112.339 25.0497 110.993 24.6573 109.137 24.2457C107.101 23.8082 105.4 23.3387 104.034 22.8369C102.667 22.3352 101.495 21.5311 100.515 20.4247C99.5359 19.3183 99.0462 17.826 99.0462 15.9477C99.0462 14.3009 99.4972 12.815 100.399 11.4899C101.301 10.1648 102.648 9.11629 104.439 8.34438C106.231 7.57248 108.428 7.18652 111.031 7.18652C112.81 7.18652 114.562 7.38593 116.289 7.78475C118.016 8.18357 119.537 8.76893 120.851 9.54084L118.493 15.2143C115.916 13.8249 113.415 13.1302 110.993 13.1302C109.472 13.1302 108.364 13.3553 107.668 13.8056C106.972 14.2559 106.624 14.8413 106.624 15.5617C106.624 16.2822 107.036 16.8225 107.861 17.1827C108.686 17.5429 110.013 17.916 111.843 18.302C113.905 18.7394 115.613 19.209 116.966 19.7107C118.319 20.2124 119.492 21.0101 120.484 22.1036C121.476 23.1971 121.973 24.6831 121.973 26.5614C121.973 28.1824 121.521 29.649 120.619 30.9612C119.717 32.2735 118.364 33.322 116.56 34.1068C114.756 34.8915 112.565 35.2839 109.987 35.2839C107.797 35.2839 105.67 35.0137 103.608 34.4734ZM144.009 29.4946H132.565L130.438 34.7436H122.629L134.575 7.72686H142.114L154.099 34.7436H146.135L144.009 29.4946ZM141.766 23.8597L138.287 15.2143L134.807 23.8597H141.766Z" fill="#1E1A1A"/>
<mask id="mask0_1333_96908" style="mask-type:luminance" maskUnits="userSpaceOnUse" x="6" y="6" width="30" height="30">
<path d="M6.59277 6.51416H35.6826V35.4162H6.59277V6.51416Z" fill="white"/>
</mask>
<g mask="url(#mask0_1333_96908)">
<mask id="mask1_1333_96908" style="mask-type:luminance" maskUnits="userSpaceOnUse" x="6" y="6" width="30" height="30">
<path d="M6.57959 6.51416H35.6694V35.4162H6.57959V6.51416Z" fill="white"/>
</mask>
<g mask="url(#mask1_1333_96908)">
<path d="M6.57959 26.5377V35.4165H11.4539V28.9393L31.1798 14.0671L27.1422 11.0347L6.57959 26.5377Z" fill="#1E1A1A"/>
</g>
<mask id="mask2_1333_96908" style="mask-type:luminance" maskUnits="userSpaceOnUse" x="6" y="6" width="30" height="30">
<path d="M6.57959 6.51416H35.6694V35.4162H6.57959V6.51416Z" fill="white"/>
</mask>
<g mask="url(#mask2_1333_96908)">
<path d="M29.1041 18.5794L30.8157 19.8651V30.5482H13.9795V35.4141H35.69V17.4361L33.1505 15.5283L29.1041 18.5794Z" fill="#0660FE"/>
</g>
<mask id="mask3_1333_96908" style="mask-type:luminance" maskUnits="userSpaceOnUse" x="6" y="6" width="30" height="30">
<path d="M6.57959 6.51416H35.6694V35.4162H6.57959V6.51416Z" fill="white"/>
</mask>
<g mask="url(#mask3_1333_96908)">
<path d="M21.1245 6.51416L6.57959 17.438V23.525L25.1416 9.5307L21.1245 6.51416Z" fill="#1E1A1A"/>
</g>
</g>
</svg>
